<svg width="30" height="30" viewBox="0 0 30 30" fill="none" xmlns="http://www.w3.org/2000/svg">
<path d="M15 2.5C16.9891 2.5 18.8968 3.29018 20.3033 4.6967C21.7098 6.10322 22.5 8.01088 22.5 10V11.25H27.5V13.75H26.0413L25.095 25.1038C25.069 25.4161 24.9266 25.7073 24.696 25.9196C24.4654 26.1319 24.1634 26.2498 23.85 26.25H6.15C5.83656 26.2498 5.53462 26.1319 5.30403 25.9196C5.07343 25.7073 4.93102 25.4161 4.905 25.1038L3.9575 13.75H2.5V11.25H7.5V10C7.5 8.01088 8.29018 6.10322 9.6967 4.6967C11.1032 3.29018 13.0109 2.5 15 2.5ZM23.5325 13.75H6.46625L7.3 23.75H22.6987L23.5325 13.75ZM16.25 16.25V21.25H13.75V16.25H16.25ZM11.25 16.25V21.25H8.75V16.25H11.25ZM21.25 16.25V21.25H18.75V16.25H21.25ZM15 5C13.7172 5 12.4835 5.49304 11.554 6.37715C10.6245 7.26127 10.0704 8.4688 10.0063 9.75L10 10V11.25H20V10C20 8.7172 19.507 7.48346 18.6228 6.55399C17.7387 5.62451 16.5312 5.07039 15.25 5.00625L15 5Z" fill="black"/>
</svg>
