<svg width="8" height="8" viewBox="0 0 8 8" fill="none" xmlns="http://www.w3.org/2000/svg">
<path d="M4 6.10352e-05C4.13261 6.10352e-05 4.25979 0.0527396 4.35355 0.146508C4.44732 0.240276 4.5 0.367453 4.5 0.500061V3.50006H7.5C7.63261 3.50006 7.75979 3.55274 7.85355 3.64651C7.94732 3.74028 8 3.86745 8 4.00006C8 4.13267 7.94732 4.25985 7.85355 4.35361C7.75979 4.44738 7.63261 4.50006 7.5 4.50006H4.5V7.50006C4.5 7.63267 4.44732 7.75985 4.35355 7.85361C4.25979 7.94738 4.13261 8.00006 4 8.00006C3.86739 8.00006 3.74021 7.94738 3.64645 7.85361C3.55268 7.75985 3.5 7.63267 3.5 7.50006V4.50006H0.5C0.367392 4.50006 0.240215 4.44738 0.146447 4.35361C0.0526785 4.25985 0 4.13267 0 4.00006C0 3.86745 0.0526785 3.74028 0.146447 3.64651C0.240215 3.55274 0.367392 3.50006 0.5 3.50006H3.5V0.500061C3.5 0.367453 3.55268 0.240276 3.64645 0.146508C3.74021 0.0527396 3.86739 6.10352e-05 4 6.10352e-05V6.10352e-05Z" fill="black"/>
</svg>
