<svg width="22" height="22" viewBox="0 0 22 22" fill="none" xmlns="http://www.w3.org/2000/svg">
<path d="M11.5 1C13.7543 1 15.9163 1.85791 17.5104 3.38499C19.1045 4.91207 20 6.98324 20 9.14286C20 12.514 17.3178 16.0462 12.0667 19.819C11.9032 19.9365 11.7043 20 11.5 20C11.2957 20 11.0968 19.9365 10.9333 19.819C5.68222 16.0462 3 12.514 3 9.14286C3 6.98324 3.89553 4.91207 5.48959 3.38499C7.08365 1.85791 9.24566 1 11.5 1ZM11.5 6.42857C10.7486 6.42857 10.0279 6.71454 9.49653 7.22357C8.96518 7.73259 8.66667 8.42298 8.66667 9.14286C8.66667 9.86273 8.96518 10.5531 9.49653 11.0621C10.0279 11.5712 10.7486 11.8571 11.5 11.8571C12.2514 11.8571 12.9721 11.5712 13.5035 11.0621C14.0348 10.5531 14.3333 9.86273 14.3333 9.14286C14.3333 8.42298 14.0348 7.73259 13.5035 7.22357C12.9721 6.71454 12.2514 6.42857 11.5 6.42857Z" fill="white"/>
</svg>
