<svg width="22" height="22" viewBox="0 0 22 22" fill="none" xmlns="http://www.w3.org/2000/svg">
<path d="M18.0597 19C10.0619 19.0112 3.99157 12.8687 4.00001 4.94031C4.00001 4.42187 4.42001 4 4.93751 4L7.41251 4C7.87657 4 8.27126 4.34125 8.33969 4.80062C8.50292 5.90224 8.82337 6.97473 9.29126 7.98531L9.38782 8.19343C9.45268 8.33349 9.46664 8.49179 9.42727 8.64103C9.38791 8.79027 9.2977 8.92109 9.17219 9.01093C8.40532 9.55843 8.11282 10.66 8.71001 11.5187C9.45907 12.5969 10.4031 13.5419 11.4813 14.2909C12.3409 14.8872 13.4425 14.5947 13.9891 13.8287C14.0788 13.7029 14.2097 13.6123 14.3592 13.5728C14.5087 13.5332 14.6672 13.5472 14.8075 13.6122L15.0147 13.7078C16.0253 14.1766 17.0978 14.4972 18.1994 14.6603C18.6588 14.7287 19 15.1234 19 15.5884V18.0625C19 18.1857 18.9757 18.3077 18.9285 18.4215C18.8814 18.5353 18.8122 18.6387 18.7251 18.7257C18.6379 18.8128 18.5345 18.8818 18.4206 18.9289C18.3068 18.976 18.1848 19.0001 18.0616 19H18.0597Z" fill="white"/>
</svg>
