<svg width="89" height="22" viewBox="0 0 89 22" fill="none" xmlns="http://www.w3.org/2000/svg">
<path d="M11.792 17L11.776 9.576L8.096 15.72H7.168L3.488 9.672L3.488 17H1.504L1.504 5.8L3.216 5.8L7.664 13.224L12.032 5.8H13.744L13.76 17H11.792ZM20.4973 8.36C21.7559 8.36 22.7159 8.664 23.3773 9.272C24.0493 9.86933 24.3853 10.776 24.3853 11.992V17H22.4973V15.96C22.2519 16.3333 21.8999 16.6213 21.4413 16.824C20.9933 17.016 20.4493 17.112 19.8093 17.112C19.1693 17.112 18.6093 17.0053 18.1293 16.792C17.6493 16.568 17.2759 16.264 17.0093 15.88C16.7533 15.4853 16.6253 15.0427 16.6253 14.552C16.6253 13.784 16.9079 13.1707 17.4733 12.712C18.0493 12.2427 18.9506 12.008 20.1773 12.008H22.3853V11.88C22.3853 11.2827 22.2039 10.824 21.8413 10.504C21.4893 10.184 20.9613 10.024 20.2573 10.024C19.7773 10.024 19.3026 10.0987 18.8333 10.248C18.3746 10.3973 17.9853 10.6053 17.6653 10.872L16.8813 9.416C17.3293 9.07467 17.8679 8.81333 18.4973 8.632C19.1266 8.45067 19.7933 8.36 20.4973 8.36ZM20.2253 15.656C20.7266 15.656 21.1693 15.544 21.5533 15.32C21.9479 15.0853 22.2253 14.7547 22.3853 14.328V13.336H20.3213C19.1693 13.336 18.5933 13.7147 18.5933 14.472C18.5933 14.8347 18.7373 15.1227 19.0253 15.336C19.3133 15.5493 19.7133 15.656 20.2253 15.656ZM29.496 9.704C30.072 8.808 31.0853 8.36 32.536 8.36V10.264C32.3653 10.232 32.2107 10.216 32.072 10.216C31.2933 10.216 30.6853 10.4453 30.248 10.904C29.8107 11.352 29.592 12.0027 29.592 12.856V17H27.592L27.592 8.456L29.496 8.456V9.704ZM34.8726 8.456H36.8726V17H34.8726V8.456ZM35.8806 7.048C35.518 7.048 35.214 6.936 34.9686 6.712C34.7233 6.47733 34.6006 6.18933 34.6006 5.848C34.6006 5.50667 34.7233 5.224 34.9686 5C35.214 4.76533 35.518 4.648 35.8806 4.648C36.2433 4.648 36.5473 4.76 36.7926 4.984C37.038 5.19733 37.1606 5.46933 37.1606 5.8C37.1606 6.152 37.038 6.45067 36.7926 6.696C36.558 6.93067 36.254 7.048 35.8806 7.048Z" fill="white"/>
<path d="M52.688 17.16C51.5573 17.16 50.5333 16.9147 49.616 16.424C48.7093 15.9227 47.9947 15.2347 47.472 14.36C46.96 13.4853 46.704 12.4987 46.704 11.4C46.704 10.3013 46.9653 9.31467 47.488 8.44C48.0107 7.56533 48.7253 6.88267 49.632 6.392C50.5493 5.89067 51.5733 5.64 52.704 5.64C53.6213 5.64 54.4587 5.8 55.216 6.12C55.9733 6.44 56.6133 6.904 57.136 7.512L55.792 8.776C54.9813 7.90133 53.984 7.464 52.8 7.464C52.032 7.464 51.344 7.63467 50.736 7.976C50.128 8.30667 49.6533 8.77067 49.312 9.368C48.9707 9.96533 48.8 10.6427 48.8 11.4C48.8 12.1573 48.9707 12.8347 49.312 13.432C49.6533 14.0293 50.128 14.4987 50.736 14.84C51.344 15.1707 52.032 15.336 52.8 15.336C53.984 15.336 54.9813 14.8933 55.792 14.008L57.136 15.288C56.6133 15.896 55.968 16.36 55.2 16.68C54.4427 17 53.6053 17.16 52.688 17.16ZM62.7629 8.36C64.0215 8.36 64.9815 8.664 65.6429 9.272C66.3149 9.86933 66.6509 10.776 66.6509 11.992V17H64.7629V15.96C64.5175 16.3333 64.1655 16.6213 63.7069 16.824C63.2589 17.016 62.7149 17.112 62.0749 17.112C61.4349 17.112 60.8749 17.0053 60.3949 16.792C59.9149 16.568 59.5415 16.264 59.2749 15.88C59.0189 15.4853 58.8909 15.0427 58.8909 14.552C58.8909 13.784 59.1735 13.1707 59.7389 12.712C60.3149 12.2427 61.2162 12.008 62.4429 12.008L64.6509 12.008V11.88C64.6509 11.2827 64.4695 10.824 64.1069 10.504C63.7549 10.184 63.2269 10.024 62.5229 10.024C62.0429 10.024 61.5682 10.0987 61.0989 10.248C60.6402 10.3973 60.2509 10.6053 59.9309 10.872L59.1469 9.416C59.5949 9.07467 60.1335 8.81333 60.7629 8.632C61.3922 8.45067 62.0589 8.36 62.7629 8.36ZM62.4909 15.656C62.9922 15.656 63.4349 15.544 63.8189 15.32C64.2135 15.0853 64.4909 14.7547 64.6509 14.328V13.336H62.5869C61.4349 13.336 60.8589 13.7147 60.8589 14.472C60.8589 14.8347 61.0029 15.1227 61.2909 15.336C61.5789 15.5493 61.9789 15.656 62.4909 15.656ZM73.3456 13.336L71.8576 14.744V17H69.8576V5.128L71.8576 5.128V12.296L76.0016 8.456H78.4016L74.8336 12.04L78.7376 17H76.3056L73.3456 13.336ZM88.3421 12.776C88.3421 12.9147 88.3315 13.112 88.3101 13.368L81.6061 13.368C81.7235 13.9973 82.0275 14.4987 82.5181 14.872C83.0195 15.2347 83.6381 15.416 84.3741 15.416C85.3128 15.416 86.0861 15.1067 86.6941 14.488L87.7661 15.72C87.3821 16.1787 86.8968 16.5253 86.3101 16.76C85.7235 16.9947 85.0621 17.112 84.3261 17.112C83.3875 17.112 82.5608 16.9253 81.8461 16.552C81.1315 16.1787 80.5768 15.6613 80.1821 15C79.7981 14.328 79.6061 13.5707 79.6061 12.728C79.6061 11.896 79.7928 11.1493 80.1661 10.488C80.5501 9.816 81.0781 9.29333 81.7501 8.92C82.4221 8.54667 83.1795 8.36 84.0221 8.36C84.8541 8.36 85.5955 8.54667 86.2461 8.92C86.9075 9.28267 87.4195 9.8 87.7821 10.472C88.1555 11.1333 88.3421 11.9013 88.3421 12.776ZM84.0221 9.96C83.3821 9.96 82.8381 10.152 82.3901 10.536C81.9528 10.9093 81.6861 11.4107 81.5901 12.04L86.4381 12.04C86.3528 11.4213 86.0915 10.92 85.6541 10.536C85.2168 10.152 84.6728 9.96 84.0221 9.96Z" fill="white"/>
</svg>
