<svg width="22" height="22" viewBox="0 0 22 22" fill="none" xmlns="http://www.w3.org/2000/svg">
<path d="M5.5 4.125C4.77065 4.125 4.07118 4.41473 3.55546 4.93046C3.03973 5.44618 2.75 6.14565 2.75 6.875V7.15138L11 11.594L19.25 7.15275V6.875C19.25 6.14565 18.9603 5.44618 18.4445 4.93046C17.9288 4.41473 17.2293 4.125 16.5 4.125L5.5 4.125Z" fill="white"/>
<path d="M19.25 8.84375L11.3259 13.1104C11.2257 13.1643 11.1137 13.1925 11 13.1925C10.8863 13.1925 10.7743 13.1643 10.6741 13.1104L2.75 8.84375L2.75 15.2554C2.75 15.9847 3.03973 16.6842 3.55546 17.1999C4.07118 17.7156 4.77065 18.0054 5.5 18.0054H16.5C17.2293 18.0054 17.9288 17.7156 18.4445 17.1999C18.9603 16.6842 19.25 15.9847 19.25 15.2554V8.84375Z" fill="white"/>
</svg>
