<svg width="8" height="13" viewBox="0 0 8 13" fill="none" xmlns="http://www.w3.org/2000/svg">
<path fill-rule="evenodd" clip-rule="evenodd" d="M4.0724 12.5439C3.95929 12.5439 3.85081 12.499 3.77082 12.419C3.69084 12.339 3.6459 12.2306 3.6459 12.1174L3.6459 2.05812L0.962392 4.74248C0.882308 4.82257 0.77369 4.86756 0.660433 4.86756C0.547176 4.86756 0.438558 4.82257 0.358474 4.74248C0.278389 4.6624 0.233398 4.55378 0.233398 4.44052C0.233398 4.32727 0.278389 4.21865 0.358474 4.13857L3.77044 0.726598C3.81006 0.68688 3.85712 0.655369 3.90894 0.633868C3.96075 0.612367 4.0163 0.601299 4.0724 0.601299C4.1285 0.601299 4.18405 0.612367 4.23586 0.633868C4.28768 0.655369 4.33474 0.68688 4.37436 0.726598L7.78633 4.13857C7.86641 4.21865 7.9114 4.32727 7.9114 4.44052C7.9114 4.55378 7.86641 4.6624 7.78633 4.74248C7.70624 4.82257 7.59762 4.86756 7.48437 4.86756C7.37111 4.86756 7.26249 4.82257 7.18241 4.74248L4.4989 2.05812L4.4989 12.1174C4.4989 12.2306 4.45396 12.339 4.37398 12.419C4.294 12.499 4.18551 12.5439 4.0724 12.5439V12.5439Z" fill="black"/>
</svg>
