<svg width="25" height="25" viewBox="0 0 25 25" fill="none" xmlns="http://www.w3.org/2000/svg">
<path d="M20.3671 3.12188C20.1163 3.14012 19.8702 3.19896 19.6382 3.2961H19.6351C19.4125 3.38438 18.3539 3.82969 16.7445 4.50469L10.9773 6.9336C6.83902 8.67578 2.77105 10.3914 2.77105 10.3914L2.81949 10.3727C2.81949 10.3727 2.53902 10.4648 2.24605 10.6656C2.06506 10.7808 1.90931 10.9315 1.78824 11.1086C1.64449 11.3195 1.52886 11.6422 1.57183 11.9758C1.64214 12.5398 2.00777 12.8781 2.27027 13.0648C2.53589 13.2539 2.78902 13.3422 2.78902 13.3422H2.79527L6.61011 14.6273C6.78121 15.1766 7.77261 18.4359 8.01089 19.1867C8.15152 19.6352 8.28824 19.9156 8.45933 20.1297C8.54214 20.2391 8.63902 20.3305 8.75542 20.4039C8.81594 20.4391 8.88046 20.4669 8.94761 20.4867L8.90855 20.4773C8.92027 20.4805 8.92964 20.4898 8.93824 20.493C8.96949 20.5016 8.99058 20.5047 9.03042 20.5109C9.63433 20.6938 10.1195 20.3188 10.1195 20.3188L10.1468 20.2969L12.3992 18.2461L16.1742 21.1422L16.2601 21.1789C17.0468 21.5242 17.8437 21.332 18.2648 20.993C18.689 20.6516 18.8539 20.2148 18.8539 20.2148L18.8812 20.1445L21.7984 5.2C21.8812 4.83125 21.9023 4.48594 21.8109 4.15078C21.7166 3.81159 21.499 3.51985 21.2007 3.33282C20.9503 3.18056 20.6599 3.10707 20.3671 3.12188ZM20.2882 4.72344C20.2851 4.77266 20.2945 4.76719 20.2726 4.86172V4.87032L17.3828 19.6594C17.3703 19.6805 17.3492 19.7266 17.2914 19.7727C17.2304 19.8211 17.182 19.8516 16.9281 19.7508L12.3109 16.2109L9.52183 18.7531L10.1078 15.0109L17.6515 7.97969C17.9625 7.69063 17.8585 7.62969 17.8585 7.62969C17.8804 7.275 17.389 7.52578 17.389 7.52578L7.87652 13.4188L7.87339 13.4031L3.31402 11.868V11.8648L3.3023 11.8625C3.31029 11.8598 3.31812 11.8567 3.32574 11.8531L3.35074 11.8406L3.37496 11.832C3.37496 11.832 7.44605 10.1164 11.5843 8.37422C13.6562 7.50157 15.7437 6.62266 17.3492 5.94453C18.9546 5.27032 20.1414 4.77578 20.2086 4.74922C20.2726 4.72422 20.2421 4.72422 20.2882 4.72422V4.72344Z" fill="black"/>
</svg>
