<svg width="25" height="25" viewBox="0 0 25 25" fill="none" xmlns="http://www.w3.org/2000/svg">
<path d="M17.5046 8.62032C18.126 8.62032 18.6296 8.11664 18.6296 7.49532C18.6296 6.87399 18.126 6.37032 17.5046 6.37032C16.8833 6.37032 16.3796 6.87399 16.3796 7.49532C16.3796 8.11664 16.8833 8.62032 17.5046 8.62032Z" fill="black"/>
<path d="M12.5 7.68594C11.5478 7.68594 10.6171 7.96828 9.82543 8.49726C9.03376 9.02623 8.41673 9.77809 8.05236 10.6577C7.688 11.5374 7.59266 12.5053 7.77842 13.4392C7.96417 14.373 8.42266 15.2308 9.09592 15.9041C9.76918 16.5773 10.627 17.0358 11.5608 17.2216C12.4946 17.4073 13.4626 17.312 14.3422 16.9476C15.2219 16.5833 15.9737 15.9662 16.5027 15.1746C17.0317 14.3829 17.314 13.4521 17.314 12.5C17.314 11.2232 16.8068 9.99876 15.904 9.09595C15.0012 8.19314 13.7767 7.68594 12.5 7.68594ZM12.5 15.625C11.8819 15.625 11.2777 15.4417 10.7638 15.0983C10.2499 14.755 9.84938 14.2669 9.61285 13.6959C9.37633 13.1249 9.31444 12.4965 9.43502 11.8903C9.5556 11.2842 9.85323 10.7273 10.2903 10.2903C10.7273 9.85326 11.2841 9.55563 11.8903 9.43505C12.4965 9.31447 13.1248 9.37636 13.6959 9.61288C14.2669 9.84941 14.7549 10.2499 15.0983 10.7638C15.4417 11.2778 15.625 11.8819 15.625 12.5C15.625 13.3288 15.2957 14.1237 14.7097 14.7097C14.1236 15.2958 13.3288 15.625 12.5 15.625Z" fill="black"/>
<path d="M12.5 4.81406C15.0031 4.81406 15.3 4.82344 16.2883 4.86875C16.8827 4.87581 17.4715 4.98495 18.0289 5.19141C18.4333 5.34742 18.8006 5.58636 19.1071 5.89287C19.4136 6.19939 19.6526 6.56667 19.8086 6.97109C20.0151 7.52854 20.1242 8.11731 20.1313 8.71172C20.1766 9.7 20.1859 9.99687 20.1859 12.5008C20.1859 15.0047 20.1766 15.3 20.1313 16.2883C20.1242 16.8827 20.0151 17.4715 19.8086 18.0289C19.6526 18.4333 19.4136 18.8006 19.1071 19.1071C18.8006 19.4136 18.4333 19.6526 18.0289 19.8086C17.4715 20.0151 16.8827 20.1242 16.2883 20.1313C15.3 20.1766 15.0031 20.1859 12.5 20.1859C9.99687 20.1859 9.7 20.1766 8.71172 20.1313C8.11731 20.1242 7.52854 20.0151 6.97109 19.8086C6.56667 19.6526 6.19939 19.4136 5.89287 19.1071C5.58636 18.8006 5.34742 18.4333 5.19141 18.0289C4.98495 17.4715 4.87581 16.8827 4.86875 16.2883C4.82344 15.3 4.81406 15.0031 4.81406 12.5C4.81406 9.99687 4.82344 9.7 4.86875 8.71172C4.87581 8.11731 4.98495 7.52854 5.19141 6.97109C5.34742 6.56667 5.58636 6.19939 5.89287 5.89287C6.19939 5.58636 6.56667 5.34742 6.97109 5.19141C7.52854 4.98495 8.11731 4.87581 8.71172 4.86875C9.7 4.82344 9.99687 4.81406 12.5 4.81406ZM12.5 3.125C9.95391 3.125 9.63438 3.13594 8.63438 3.18125C7.85685 3.19695 7.08762 3.34435 6.35938 3.61719C5.7365 3.85804 5.17083 4.22639 4.69861 4.69861C4.22639 5.17083 3.85804 5.7365 3.61719 6.35938C3.34426 7.08787 3.19686 7.85737 3.18125 8.63516C3.13594 9.63516 3.125 9.95312 3.125 12.5C3.125 15.0469 3.13594 15.3656 3.18125 16.3656C3.19695 17.1431 3.34435 17.9124 3.61719 18.6406C3.85804 19.2635 4.22639 19.8292 4.69861 20.3014C5.17083 20.7736 5.7365 21.142 6.35938 21.3828C7.08787 21.6557 7.85737 21.8031 8.63516 21.8188C9.63516 21.8641 9.95391 21.875 12.5 21.875C15.0461 21.875 15.3656 21.8641 16.3656 21.8188C17.1434 21.8031 17.9129 21.6557 18.6414 21.3828C19.2643 21.142 19.83 20.7736 20.3022 20.3014C20.7744 19.8292 21.1427 19.2635 21.3836 18.6406C21.6562 17.9121 21.8034 17.1426 21.8188 16.3648C21.8641 15.3648 21.875 15.0469 21.875 12.5C21.875 9.95313 21.8641 9.63438 21.8188 8.63438C21.803 7.85685 21.6556 7.08762 21.3828 6.35938C21.142 5.7365 20.7736 5.17083 20.3014 4.69861C19.8292 4.22639 19.2635 3.85804 18.6406 3.61719C17.9121 3.34453 17.1426 3.19739 16.3648 3.18203C15.3648 3.13516 15.0469 3.125 12.5 3.125Z" fill="black"/>
</svg>
