<svg width="14" height="13" viewBox="0 0 14 13" fill="none" xmlns="http://www.w3.org/2000/svg">
<path d="M6.99967 0.333313C8.06054 0.333313 9.07796 0.75474 9.8281 1.50489C10.5782 2.25503 10.9997 3.27245 10.9997 4.33331V4.99998H13.6663V6.33331H12.8883L12.3837 12.3886C12.3698 12.5552 12.2938 12.7105 12.1709 12.8238C12.0479 12.937 11.8868 12.9999 11.7197 13H2.27967C2.11251 12.9999 1.95147 12.937 1.82849 12.8238C1.70551 12.7105 1.62955 12.5552 1.61567 12.3886L1.11034 6.33331H0.333008V4.99998H2.99967V4.33331C2.99967 3.27245 3.4211 2.25503 4.17125 1.50489C4.92139 0.75474 5.93881 0.333313 6.99967 0.333313ZM11.5503 6.33331H2.44834L2.89301 11.6666H11.1057L11.5503 6.33331ZM7.66634 7.66665V10.3333H6.33301V7.66665H7.66634ZM4.99967 7.66665V10.3333H3.66634V7.66665H4.99967ZM10.333 7.66665V10.3333H8.99967V7.66665H10.333ZM6.99967 1.66665C6.31551 1.66665 5.65752 1.9296 5.1618 2.40113C4.66608 2.87265 4.37055 3.51667 4.33634 4.19998L4.33301 4.33331V4.99998H9.66634V4.33331C9.66634 3.64915 9.40338 2.99116 8.93186 2.49544C8.46033 1.99972 7.81631 1.70419 7.13301 1.66998L6.99967 1.66665Z" fill="black"/>
</svg>
