<svg width="22" height="22" viewBox="0 0 22 22" fill="none" xmlns="http://www.w3.org/2000/svg">
<path d="M10.553 5.1684L11 6.05976L11.447 5.1684C12.2438 3.57922 13.8579 2.5 15.7107 2.5C18.3453 2.5 20.5 4.68769 20.5 7.41056C20.5 8.74967 19.9296 10.1782 19.017 11.5963C18.1081 13.0087 16.8876 14.3678 15.653 15.5579C14.4203 16.7461 13.1857 17.7543 12.2581 18.4659C11.7948 18.8214 11.4091 19.1022 11.1399 19.2936C11.089 19.3298 11.0423 19.3628 11 19.3925C10.9577 19.3628 10.911 19.3298 10.8601 19.2936C10.5909 19.1022 10.2052 18.8214 9.74186 18.4659C8.81434 17.7543 7.57966 16.7461 6.347 15.5579C5.11241 14.3678 3.89187 13.0087 2.98296 11.5963C2.07038 10.1782 1.5 8.74967 1.5 7.41056C1.5 4.68769 3.65474 2.5 6.28933 2.5C8.14206 2.5 9.75618 3.57922 10.553 5.1684Z" stroke="#AB2040"/>
</svg>
