<svg width="28" height="28" viewBox="0 0 28 28" fill="none" xmlns="http://www.w3.org/2000/svg">
<path d="M1 0C0.734784 0 0.48043 0.105357 0.292893 0.292893C0.105357 0.48043 0 0.734784 0 1V9C0 9.26522 0.105357 9.51957 0.292893 9.70711C0.48043 9.89464 0.734784 10 1 10C1.26522 10 1.51957 9.89464 1.70711 9.70711C1.89464 9.51957 2 9.26522 2 9V3.414L8.292 9.708C8.47977 9.89577 8.73445 10.0013 9 10.0013C9.26555 10.0013 9.52023 9.89577 9.708 9.708C9.89577 9.52023 10.0013 9.26555 10.0013 9C10.0013 8.73445 9.89577 8.47977 9.708 8.292L3.414 2H9C9.26522 2 9.51957 1.89464 9.70711 1.70711C9.89464 1.51957 10 1.26522 10 1C10 0.734784 9.89464 0.48043 9.70711 0.292893C9.51957 0.105357 9.26522 0 9 0H1ZM1 28C0.734784 28 0.48043 27.8946 0.292893 27.7071C0.105357 27.5196 0 27.2652 0 27V19C0 18.7348 0.105357 18.4804 0.292893 18.2929C0.48043 18.1054 0.734784 18 1 18C1.26522 18 1.51957 18.1054 1.70711 18.2929C1.89464 18.4804 2 18.7348 2 19V24.586L8.292 18.292C8.47977 18.1042 8.73445 17.9987 9 17.9987C9.26555 17.9987 9.52023 18.1042 9.708 18.292C9.89577 18.4798 10.0013 18.7344 10.0013 19C10.0013 19.2656 9.89577 19.5202 9.708 19.708L3.414 26H9C9.26522 26 9.51957 26.1054 9.70711 26.2929C9.89464 26.4804 10 26.7348 10 27C10 27.2652 9.89464 27.5196 9.70711 27.7071C9.51957 27.8946 9.26522 28 9 28H1ZM28 1C28 0.734784 27.8946 0.48043 27.7071 0.292893C27.5196 0.105357 27.2652 0 27 0H19C18.7348 0 18.4804 0.105357 18.2929 0.292893C18.1054 0.48043 18 0.734784 18 1C18 1.26522 18.1054 1.51957 18.2929 1.70711C18.4804 1.89464 18.7348 2 19 2H24.586L18.292 8.292C18.1042 8.47977 17.9987 8.73445 17.9987 9C17.9987 9.26555 18.1042 9.52023 18.292 9.708C18.4798 9.89577 18.7344 10.0013 19 10.0013C19.2656 10.0013 19.5202 9.89577 19.708 9.708L26 3.414V9C26 9.26522 26.1054 9.51957 26.2929 9.70711C26.4804 9.89464 26.7348 10 27 10C27.2652 10 27.5196 9.89464 27.7071 9.70711C27.8946 9.51957 28 9.26522 28 9V1ZM27 28C27.2652 28 27.5196 27.8946 27.7071 27.7071C27.8946 27.5196 28 27.2652 28 27V19C28 18.7348 27.8946 18.4804 27.7071 18.2929C27.5196 18.1054 27.2652 18 27 18C26.7348 18 26.4804 18.1054 26.2929 18.2929C26.1054 18.4804 26 18.7348 26 19V24.586L19.708 18.292C19.5202 18.1042 19.2656 17.9987 19 17.9987C18.7344 17.9987 18.4798 18.1042 18.292 18.292C18.1042 18.4798 17.9987 18.7344 17.9987 19C17.9987 19.2656 18.1042 19.5202 18.292 19.708L24.586 26H19C18.7348 26 18.4804 26.1054 18.2929 26.2929C18.1054 26.4804 18 26.7348 18 27C18 27.2652 18.1054 27.5196 18.2929 27.7071C18.4804 27.8946 18.7348 28 19 28H27Z" fill="white"/>
</svg>
