<svg width="26" height="25" viewBox="0 0 26 25" fill="none" xmlns="http://www.w3.org/2000/svg">
<path fill-rule="evenodd" clip-rule="evenodd" d="M2.0625 12.5C2.0625 12.2928 2.14481 12.0941 2.29132 11.9476C2.43784 11.8011 2.63655 11.7188 2.84375 11.7188L21.2703 11.7188L16.3531 6.80314C16.2064 6.65644 16.124 6.45747 16.124 6.25001C16.124 6.04255 16.2064 5.84358 16.3531 5.69689C16.4998 5.55019 16.6988 5.46777 16.9062 5.46777C17.1137 5.46777 17.3127 5.55019 17.4594 5.69689L23.7094 11.9469C23.7821 12.0195 23.8399 12.1057 23.8792 12.2006C23.9186 12.2955 23.9389 12.3972 23.9389 12.5C23.9389 12.6028 23.9186 12.7045 23.8792 12.7994C23.8399 12.8944 23.7821 12.9806 23.7094 13.0531L17.4594 19.3031C17.3127 19.4498 17.1137 19.5322 16.9062 19.5322C16.6988 19.5322 16.4998 19.4498 16.3531 19.3031C16.2064 19.1564 16.124 18.9575 16.124 18.75C16.124 18.5425 16.2064 18.3436 16.3531 18.1969L21.2703 13.2813L2.84375 13.2813C2.63655 13.2813 2.43784 13.1989 2.29132 13.0524C2.14481 12.9059 2.0625 12.7072 2.0625 12.5Z" fill="#686868"/>
</svg>
