<svg width="15" height="15" viewBox="0 0 15 15" fill="none" xmlns="http://www.w3.org/2000/svg">
<path d="M4.99278 2.1872C4.91101 2.27091 4.86523 2.3833 4.86523 2.50032C4.86523 2.61735 4.91101 2.72973 4.99278 2.81345L9.56122 7.50001L4.99278 12.1856C4.91101 12.2694 4.86523 12.3817 4.86523 12.4988C4.86523 12.6158 4.91101 12.7282 4.99278 12.8119C5.03253 12.8527 5.08005 12.8852 5.13254 12.9073C5.18504 12.9295 5.24143 12.9409 5.29841 12.9409C5.35538 12.9409 5.41178 12.9295 5.46427 12.9073C5.51677 12.8852 5.56429 12.8527 5.60403 12.8119L10.4622 7.8272C10.5475 7.73966 10.5952 7.62225 10.5952 7.50001C10.5952 7.37777 10.5475 7.26036 10.4622 7.17282L5.60403 2.18813C5.56429 2.14731 5.51677 2.11487 5.46427 2.09271C5.41178 2.07056 5.35538 2.05914 5.29841 2.05914C5.24143 2.05914 5.18504 2.07056 5.13254 2.09271C5.08005 2.11487 5.03253 2.14731 4.99278 2.18813V2.1872Z" fill="black"/>
</svg>
