<svg width="135" height="36" viewBox="0 0 135 36" fill="none" xmlns="http://www.w3.org/2000/svg">
<path d="M21.025 9.5V27H19.25V13L12.375 24.775H11.5L4.625 13.075V27H2.85V9.5H4.375L11.975 22.475L19.5 9.5H21.025ZM31.952 13.75C33.6686 13.75 34.9853 14.1833 35.902 15.05C36.8186 15.9 37.277 17.1667 37.277 18.85V27H35.577V24.95C35.177 25.6333 34.5853 26.1667 33.802 26.55C33.0353 26.9333 32.1186 27.125 31.052 27.125C29.5853 27.125 28.4186 26.775 27.552 26.075C26.6853 25.375 26.252 24.45 26.252 23.3C26.252 22.1833 26.652 21.2833 27.452 20.6C28.2686 19.9167 29.5603 19.575 31.327 19.575H35.502V18.775C35.502 17.6417 35.1853 16.7833 34.552 16.2C33.9186 15.6 32.9936 15.3 31.777 15.3C30.9436 15.3 30.1436 15.4417 29.377 15.725C28.6103 15.9917 27.952 16.3667 27.402 16.85L26.602 15.525C27.2686 14.9583 28.0686 14.525 29.002 14.225C29.9353 13.9083 30.9186 13.75 31.952 13.75ZM31.327 25.725C32.327 25.725 33.1853 25.5 33.902 25.05C34.6186 24.5833 35.152 23.9167 35.502 23.05V20.9H31.377C29.127 20.9 28.002 21.6833 28.002 23.25C28.002 24.0167 28.2936 24.625 28.877 25.075C29.4603 25.5083 30.277 25.725 31.327 25.725ZM44.798 16.425C45.2147 15.5417 45.8314 14.875 46.648 14.425C47.4814 13.975 48.5064 13.75 49.723 13.75V15.475L49.298 15.45C47.9147 15.45 46.8314 15.875 46.048 16.725C45.2647 17.575 44.873 18.7667 44.873 20.3V27H43.098V13.85H44.798V16.425ZM53.9369 13.85H55.7119V27H53.9369V13.85ZM54.8369 10.975C54.4702 10.975 54.1619 10.85 53.9119 10.6C53.6619 10.35 53.5369 10.05 53.5369 9.7C53.5369 9.36667 53.6619 9.075 53.9119 8.825C54.1619 8.575 54.4702 8.45 54.8369 8.45C55.2036 8.45 55.5119 8.575 55.7619 8.825C56.0119 9.05833 56.1369 9.34167 56.1369 9.675C56.1369 10.0417 56.0119 10.35 55.7619 10.6C55.5119 10.85 55.2036 10.975 54.8369 10.975Z" fill="black"/>
<path d="M79.45 27.15C77.7167 27.15 76.15 26.7667 74.75 26C73.3667 25.2333 72.275 24.175 71.475 22.825C70.6917 21.4583 70.3 19.9333 70.3 18.25C70.3 16.5667 70.6917 15.05 71.475 13.7C72.275 12.3333 73.375 11.2667 74.775 10.5C76.175 9.73333 77.7417 9.35 79.475 9.35C80.775 9.35 81.975 9.56667 83.075 10C84.175 10.4333 85.1083 11.0667 85.875 11.9L84.7 13.075C83.3333 11.6917 81.6083 11 79.525 11C78.1417 11 76.8833 11.3167 75.75 11.95C74.6167 12.5833 73.725 13.45 73.075 14.55C72.4417 15.65 72.125 16.8833 72.125 18.25C72.125 19.6167 72.4417 20.85 73.075 21.95C73.725 23.05 74.6167 23.9167 75.75 24.55C76.8833 25.1833 78.1417 25.5 79.525 25.5C81.625 25.5 83.35 24.8 84.7 23.4L85.875 24.575C85.1083 25.4083 84.1667 26.05 83.05 26.5C81.95 26.9333 80.75 27.15 79.45 27.15ZM94.8484 13.75C96.5651 13.75 97.8818 14.1833 98.7984 15.05C99.7151 15.9 100.173 17.1667 100.173 18.85V27H98.4734V24.95C98.0734 25.6333 97.4818 26.1667 96.6984 26.55C95.9318 26.9333 95.0151 27.125 93.9484 27.125C92.4818 27.125 91.3151 26.775 90.4484 26.075C89.5818 25.375 89.1484 24.45 89.1484 23.3C89.1484 22.1833 89.5484 21.2833 90.3484 20.6C91.1651 19.9167 92.4568 19.575 94.2234 19.575H98.3984V18.775C98.3984 17.6417 98.0818 16.7833 97.4484 16.2C96.8151 15.6 95.8901 15.3 94.6734 15.3C93.8401 15.3 93.0401 15.4417 92.2734 15.725C91.5068 15.9917 90.8484 16.3667 90.2984 16.85L89.4984 15.525C90.1651 14.9583 90.9651 14.525 91.8984 14.225C92.8318 13.9083 93.8151 13.75 94.8484 13.75ZM94.2234 25.725C95.2234 25.725 96.0818 25.5 96.7984 25.05C97.5151 24.5833 98.0484 23.9167 98.3984 23.05V20.9H94.2734C92.0234 20.9 90.8984 21.6833 90.8984 23.25C90.8984 24.0167 91.1901 24.625 91.7734 25.075C92.3568 25.5083 93.1734 25.725 94.2234 25.725ZM110.87 20.4L107.77 23.25V27H105.995V8.45H107.77V21.025L115.62 13.85H117.82L112.195 19.225L118.345 27H116.17L110.87 20.4ZM132.922 20.975H121.922C122.022 22.3417 122.547 23.45 123.497 24.3C124.447 25.1333 125.647 25.55 127.097 25.55C127.914 25.55 128.664 25.4083 129.347 25.125C130.03 24.825 130.622 24.3917 131.122 23.825L132.122 24.975C131.539 25.675 130.805 26.2083 129.922 26.575C129.055 26.9417 128.097 27.125 127.047 27.125C125.697 27.125 124.497 26.8417 123.447 26.275C122.414 25.6917 121.605 24.8917 121.022 23.875C120.439 22.8583 120.147 21.7083 120.147 20.425C120.147 19.1417 120.422 17.9917 120.972 16.975C121.539 15.9583 122.305 15.1667 123.272 14.6C124.255 14.0333 125.355 13.75 126.572 13.75C127.789 13.75 128.88 14.0333 129.847 14.6C130.814 15.1667 131.572 15.9583 132.122 16.975C132.672 17.975 132.947 19.125 132.947 20.425L132.922 20.975ZM126.572 15.275C125.305 15.275 124.239 15.6833 123.372 16.5C122.522 17.3 122.039 18.35 121.922 19.65H131.247C131.13 18.35 130.639 17.3 129.772 16.5C128.922 15.6833 127.855 15.275 126.572 15.275Z" fill="black"/>
</svg>
