<svg width="44" height="44" viewBox="0 0 44 44" fill="none" xmlns="http://www.w3.org/2000/svg">
<path d="M36.7583 20.1667H7.24167C6.27977 20.1667 5.5 20.9465 5.5 21.9084V22.0917C5.5 23.0536 6.27977 23.8333 7.24167 23.8333H36.7583C37.7202 23.8333 38.5 23.0536 38.5 22.0917V21.9084C38.5 20.9465 37.7202 20.1667 36.7583 20.1667Z" fill="black"/>
<path d="M36.7583 29.3333H7.24167C6.27977 29.3333 5.5 30.1131 5.5 31.075V31.2583C5.5 32.2202 6.27977 33 7.24167 33H36.7583C37.7202 33 38.5 32.2202 38.5 31.2583V31.075C38.5 30.1131 37.7202 29.3333 36.7583 29.3333Z" fill="black"/>
<path d="M36.7583 11H7.24167C6.27977 11 5.5 11.7798 5.5 12.7417V12.925C5.5 13.8869 6.27977 14.6667 7.24167 14.6667H36.7583C37.7202 14.6667 38.5 13.8869 38.5 12.925V12.7417C38.5 11.7798 37.7202 11 36.7583 11Z" fill="black"/>
</svg>
