<svg width="20" height="19" viewBox="0 0 20 19" fill="none" xmlns="http://www.w3.org/2000/svg">
<path d="M9.99967 0.833313C11.4584 0.833313 12.8573 1.41278 13.8888 2.44423C14.9202 3.47568 15.4997 4.87462 15.4997 6.33331V7.24998H19.1663V9.08331H18.0966L17.4027 17.4094C17.3836 17.6385 17.2792 17.852 17.1101 18.0077C16.941 18.1634 16.7195 18.2499 16.4897 18.25H3.50967C3.27982 18.2499 3.0584 18.1634 2.88929 18.0077C2.72019 17.852 2.61575 17.6385 2.59667 17.4094L1.90184 9.08331H0.833008V7.24998H4.49967V6.33331C4.49967 4.87462 5.07914 3.47568 6.11059 2.44423C7.14204 1.41278 8.54098 0.833313 9.99967 0.833313ZM16.2568 9.08331H3.74159L4.35301 16.4166H15.6454L16.2568 9.08331ZM10.9163 10.9166V14.5833H9.08301V10.9166H10.9163ZM7.24967 10.9166V14.5833H5.41634V10.9166H7.24967ZM14.583 10.9166V14.5833H12.7497V10.9166H14.583ZM9.99967 2.66665C9.05895 2.66665 8.15422 3.02821 7.4726 3.67656C6.79098 4.32491 6.38463 5.21043 6.33759 6.14998L6.33301 6.33331V7.24998H13.6663V6.33331C13.6663 5.39259 13.3048 4.48785 12.6564 3.80624C12.0081 3.12462 11.1226 2.71827 10.183 2.67123L9.99967 2.66665Z" fill="black"/>
</svg>
