<svg width="188" height="51" viewBox="0 0 188 51" fill="none" xmlns="http://www.w3.org/2000/svg">
<path d="M30.276 12.8V38H27.72V17.84L17.82 34.796H16.56L6.66 17.948V38H4.104V12.8H6.3L17.244 31.484L28.08 12.8H30.276ZM46.0108 18.92C48.4828 18.92 50.3788 19.544 51.6988 20.792C53.0188 22.016 53.6788 23.84 53.6788 26.264V38H51.2308V35.048C50.6548 36.032 49.8028 36.8 48.6748 37.352C47.5708 37.904 46.2508 38.18 44.7148 38.18C42.6028 38.18 40.9228 37.676 39.6748 36.668C38.4268 35.66 37.8028 34.328 37.8028 32.672C37.8028 31.064 38.3788 29.768 39.5308 28.784C40.7068 27.8 42.5668 27.308 45.1108 27.308H51.1228V26.156C51.1228 24.524 50.6668 23.288 49.7548 22.448C48.8428 21.584 47.5108 21.152 45.7588 21.152C44.5588 21.152 43.4068 21.356 42.3028 21.764C41.1988 22.148 40.2508 22.688 39.4588 23.384L38.3068 21.476C39.2668 20.66 40.4188 20.036 41.7628 19.604C43.1068 19.148 44.5228 18.92 46.0108 18.92ZM45.1108 36.164C46.5508 36.164 47.7868 35.84 48.8188 35.192C49.8508 34.52 50.6188 33.56 51.1228 32.312V29.216H45.1828C41.9428 29.216 40.3228 30.344 40.3228 32.6C40.3228 33.704 40.7428 34.58 41.5828 35.228C42.4228 35.852 43.5988 36.164 45.1108 36.164ZM64.5092 22.772C65.1092 21.5 65.9972 20.54 67.1732 19.892C68.3732 19.244 69.8492 18.92 71.6012 18.92V21.404L70.9892 21.368C68.9972 21.368 67.4372 21.98 66.3092 23.204C65.1812 24.428 64.6172 26.144 64.6172 28.352V38H62.0612V19.064H64.5092V22.772ZM77.6692 19.064H80.2252V38H77.6692V19.064ZM78.9652 14.924C78.4372 14.924 77.9932 14.744 77.6332 14.384C77.2732 14.024 77.0932 13.592 77.0932 13.088C77.0932 12.608 77.2732 12.188 77.6332 11.828C77.9932 11.468 78.4372 11.288 78.9652 11.288C79.4932 11.288 79.9372 11.468 80.2972 11.828C80.6572 12.164 80.8372 12.572 80.8372 13.052C80.8372 13.58 80.6572 14.024 80.2972 14.384C79.9372 14.744 79.4932 14.924 78.9652 14.924Z" fill="black"/>
<path d="M109.048 38.216C106.552 38.216 104.296 37.664 102.28 36.56C100.288 35.456 98.716 33.932 97.564 31.988C96.436 30.02 95.872 27.824 95.872 25.4C95.872 22.976 96.436 20.792 97.564 18.848C98.716 16.88 100.3 15.344 102.316 14.24C104.332 13.136 106.588 12.584 109.084 12.584C110.956 12.584 112.684 12.896 114.268 13.52C115.852 14.144 117.196 15.056 118.3 16.256L116.608 17.948C114.64 15.956 112.156 14.96 109.156 14.96C107.164 14.96 105.352 15.416 103.72 16.328C102.088 17.24 100.804 18.488 99.868 20.072C98.956 21.656 98.5 23.432 98.5 25.4C98.5 27.368 98.956 29.144 99.868 30.728C100.804 32.312 102.088 33.56 103.72 34.472C105.352 35.384 107.164 35.84 109.156 35.84C112.18 35.84 114.664 34.832 116.608 32.816L118.3 34.508C117.196 35.708 115.84 36.632 114.232 37.28C112.648 37.904 110.92 38.216 109.048 38.216ZM131.222 18.92C133.694 18.92 135.59 19.544 136.91 20.792C138.23 22.016 138.89 23.84 138.89 26.264V38H136.442V35.048C135.866 36.032 135.014 36.8 133.886 37.352C132.782 37.904 131.462 38.18 129.926 38.18C127.814 38.18 126.134 37.676 124.886 36.668C123.638 35.66 123.014 34.328 123.014 32.672C123.014 31.064 123.59 29.768 124.742 28.784C125.918 27.8 127.778 27.308 130.322 27.308H136.334V26.156C136.334 24.524 135.878 23.288 134.966 22.448C134.054 21.584 132.722 21.152 130.97 21.152C129.77 21.152 128.618 21.356 127.514 21.764C126.41 22.148 125.462 22.688 124.67 23.384L123.518 21.476C124.478 20.66 125.63 20.036 126.974 19.604C128.318 19.148 129.734 18.92 131.222 18.92ZM130.322 36.164C131.762 36.164 132.998 35.84 134.03 35.192C135.062 34.52 135.83 33.56 136.334 32.312V29.216H130.394C127.154 29.216 125.534 30.344 125.534 32.6C125.534 33.704 125.954 34.58 126.794 35.228C127.634 35.852 128.81 36.164 130.322 36.164ZM154.292 28.496L149.828 32.6V38H147.272V11.288H149.828V29.396L161.132 19.064H164.3L156.2 26.804L165.056 38H161.924L154.292 28.496ZM186.048 29.324H170.208C170.352 31.292 171.108 32.888 172.476 34.112C173.844 35.312 175.572 35.912 177.66 35.912C178.836 35.912 179.916 35.708 180.9 35.3C181.884 34.868 182.736 34.244 183.456 33.428L184.896 35.084C184.056 36.092 183 36.86 181.728 37.388C180.48 37.916 179.1 38.18 177.588 38.18C175.644 38.18 173.916 37.772 172.404 36.956C170.916 36.116 169.752 34.964 168.912 33.5C168.072 32.036 167.652 30.38 167.652 28.532C167.652 26.684 168.048 25.028 168.84 23.564C169.656 22.1 170.76 20.96 172.152 20.144C173.568 19.328 175.152 18.92 176.904 18.92C178.656 18.92 180.228 19.328 181.62 20.144C183.012 20.96 184.104 22.1 184.896 23.564C185.688 25.004 186.084 26.66 186.084 28.532L186.048 29.324ZM176.904 21.116C175.08 21.116 173.544 21.704 172.296 22.88C171.072 24.032 170.376 25.544 170.208 27.416H183.636C183.468 25.544 182.76 24.032 181.512 22.88C180.288 21.704 178.752 21.116 176.904 21.116Z" fill="black"/>
</svg>
