<svg width="16" height="16" viewBox="0 0 16 16" fill="none" xmlns="http://www.w3.org/2000/svg">
<path d="M14.6056 15.0454C6.60778 15.0567 0.53747 8.91419 0.545907 0.985766C0.545907 0.467329 0.965907 0.045455 1.48341 0.045455L3.95841 0.045455C4.42247 0.045455 4.81715 0.386705 4.88559 0.846079C5.04881 1.94769 5.36927 3.02018 5.83715 4.03076L5.93372 4.23889C5.99858 4.37894 6.01253 4.53724 5.97317 4.68648C5.93381 4.83572 5.84359 4.96655 5.71809 5.05639C4.95122 5.60389 4.65872 6.70545 5.2559 7.5642C6.00497 8.64232 6.94903 9.58732 8.02715 10.3364C8.88684 10.9326 9.9884 10.6401 10.535 9.87419C10.6247 9.74831 10.7556 9.65777 10.9051 9.61822C11.0546 9.57867 11.2131 9.59261 11.3534 9.65763L11.5606 9.75326C12.5712 10.222 13.6437 10.5426 14.7453 10.7058C15.2046 10.7742 15.5459 11.1689 15.5459 11.6339V14.1079C15.5459 14.2311 15.5216 14.3531 15.4744 14.4669C15.4273 14.5807 15.3581 14.6841 15.271 14.7712C15.1838 14.8583 15.0804 14.9273 14.9665 14.9743C14.8527 15.0214 14.7307 15.0456 14.6075 15.0454H14.6056Z" fill="url(#paint0_linear_235_112)"/>
<defs>
<linearGradient id="paint0_linear_235_112" x1="3.17236" y1="0.0454506" x2="19.6839" y2="2.96082" gradientUnits="userSpaceOnUse">
<stop stop-color="#3B1017"/>
<stop offset="1" stop-color="#CE084E"/>
</linearGradient>
</defs>
</svg>
